<svg xmlns="http://www.w3.org/2000/svg" width="24" height="23.415" viewBox="0 0 24 23.415">
  <path id="feature_search_FILL0_wght400_GRAD0_opsz24" d="M98.732-866.829l2.341,2.341v5.561a2.255,2.255,0,0,1-.688,1.654,2.255,2.255,0,0,1-1.654.688H82.341a2.255,2.255,0,0,1-1.654-.688A2.255,2.255,0,0,1,80-858.927v-16.39a2.254,2.254,0,0,1,.688-1.654,2.255,2.255,0,0,1,1.654-.688H88.78a5.226,5.226,0,0,0-.351,1.127q-.117.6-.176,1.214H82.341v16.39h16.39Zm1.522-5.093L104-868.175l-1.639,1.639-3.746-3.746a7.31,7.31,0,0,1-1.317.585,4.692,4.692,0,0,1-1.493.234A5.081,5.081,0,0,1,92.073-871a5.081,5.081,0,0,1-1.537-3.732,5.081,5.081,0,0,1,1.537-3.732A5.08,5.08,0,0,1,95.8-880a5.08,5.08,0,0,1,3.732,1.537,5.081,5.081,0,0,1,1.537,3.732,4.69,4.69,0,0,1-.234,1.493A7.292,7.292,0,0,1,100.254-871.922ZM95.8-871.8a2.826,2.826,0,0,0,2.078-.849,2.826,2.826,0,0,0,.849-2.078,2.826,2.826,0,0,0-.849-2.078,2.826,2.826,0,0,0-2.078-.849,2.826,2.826,0,0,0-2.078.849,2.826,2.826,0,0,0-.849,2.078,2.826,2.826,0,0,0,.849,2.078A2.826,2.826,0,0,0,95.8-871.8Zm-13.463,4.976v0Z" transform="translate(-80 880)" fill="#fff"/>
</svg>
