<svg xmlns="http://www.w3.org/2000/svg" xmlns:xlink="http://www.w3.org/1999/xlink" width="98.593" height="23.548" viewBox="0 0 98.593 23.548">
  <defs>
    <clipPath id="clip-path">
      <rect id="Retângulo_256" data-name="Retângulo 256" width="98.593" height="23.548" fill="#fff"/>
    </clipPath>
    <linearGradient id="linear-gradient" x1="0.5" x2="0.5" y2="1" gradientUnits="objectBoundingBox">
      <stop offset="0" stop-color="#0fcaf0"/>
      <stop offset="1" stop-color="#4b84ec"/>
    </linearGradient>
  </defs>
  <g id="Logo_Black" clip-path="url(#clip-path)">
    <path id="Caminho_23" data-name="Caminho 23" d="M71.5,5.157h3.423L78.4,13.544l3.827-8.387H85.66L77.295,23.4H73.836l2.748-5.882ZM62.744,7.909a3.39,3.39,0,0,0-2.588,1.1,3.93,3.93,0,0,0-1.03,2.812,4.016,4.016,0,0,0,1.043,2.85,3.419,3.419,0,0,0,2.588,1.117A3.471,3.471,0,0,0,65.381,14.7a4.034,4.034,0,0,0,1.043-2.886,3.9,3.9,0,0,0-1.043-2.824A3.509,3.509,0,0,0,62.744,7.909Zm3.521-2.752H69.6V18.518H66.265V17.1a6.683,6.683,0,0,1-1.975,1.351,5.539,5.539,0,0,1-2.135.4,5.952,5.952,0,0,1-4.477-2,7.027,7.027,0,0,1-1.888-5,7.178,7.178,0,0,1,1.828-5.072,5.822,5.822,0,0,1,4.44-1.977,5.666,5.666,0,0,1,2.256.453,6.174,6.174,0,0,1,1.95,1.362ZM50.01,0h3.348V18.518H50.01ZM40.627,7.909A3.493,3.493,0,0,0,38,8.99a3.9,3.9,0,0,0-1.043,2.824A4.037,4.037,0,0,0,38,14.7a3.474,3.474,0,0,0,2.625,1.094A3.378,3.378,0,0,0,43.2,14.676a3.983,3.983,0,0,0,1.056-2.85,3.928,3.928,0,0,0-1.03-2.812A3.4,3.4,0,0,0,40.627,7.909ZM37.107,5.157V6.63a6.3,6.3,0,0,1,1.963-1.362,5.648,5.648,0,0,1,2.256-.453,5.822,5.822,0,0,1,4.44,1.977,7.178,7.178,0,0,1,1.828,5.072,7.024,7.024,0,0,1-1.888,5,5.952,5.952,0,0,1-4.477,2,5.655,5.655,0,0,1-2.146-.4,6.649,6.649,0,0,1-1.975-1.351v6.3H33.784V5.157ZM24.043,7.909A3.493,3.493,0,0,0,21.418,8.99a3.9,3.9,0,0,0-1.043,2.824A4.037,4.037,0,0,0,21.418,14.7a3.474,3.474,0,0,0,2.625,1.094,3.378,3.378,0,0,0,2.576-1.117,3.983,3.983,0,0,0,1.056-2.85,3.927,3.927,0,0,0-1.03-2.812A3.4,3.4,0,0,0,24.043,7.909ZM20.522,5.157V6.63a6.3,6.3,0,0,1,1.963-1.362,5.648,5.648,0,0,1,2.256-.453,5.822,5.822,0,0,1,4.44,1.977,7.178,7.178,0,0,1,1.828,5.072,7.024,7.024,0,0,1-1.888,5,5.952,5.952,0,0,1-4.477,2,5.655,5.655,0,0,1-2.146-.4,6.649,6.649,0,0,1-1.975-1.351v6.3H17.2V5.157ZM6.954,7.909a3.39,3.39,0,0,0-2.588,1.1,3.93,3.93,0,0,0-1.03,2.812,4.016,4.016,0,0,0,1.043,2.85,3.419,3.419,0,0,0,2.588,1.117A3.471,3.471,0,0,0,9.592,14.7a4.034,4.034,0,0,0,1.043-2.886A3.9,3.9,0,0,0,9.592,8.988,3.506,3.506,0,0,0,6.954,7.909Zm3.521-2.752h3.336V18.518H10.475V17.1A6.683,6.683,0,0,1,8.5,18.456a5.539,5.539,0,0,1-2.135.4,5.952,5.952,0,0,1-4.477-2,7.017,7.017,0,0,1-1.888-5A7.171,7.171,0,0,1,1.828,6.791a5.822,5.822,0,0,1,4.44-1.977,5.666,5.666,0,0,1,2.256.453,6.174,6.174,0,0,1,1.95,1.362Z" fill="#00111c"/>
    <path id="Caminho_24" data-name="Caminho 24" d="M478.8,28.15h4.522l7.223,6.931-7.223,6.933H478.8l7.254-6.933Z" transform="translate(-391.952 -23.044)" fill="url(#linear-gradient)"/>
    <path id="Caminho_25" data-name="Caminho 25" d="M413.3,28.15h4.186l-8.54,18.442H404.93Z" transform="translate(-331.481 -23.044)" fill="url(#linear-gradient)"/>
  </g>
</svg>
